<svg width="155" height="25" viewBox="0 0 155 25" fill="none" xmlns="http://www.w3.org/2000/svg">
<path d="M19.1399 19.5723H14.572V7.45275L11.2444 15.2746H8.1132L4.78555 7.45275V19.5723H0.463285V1.28861H5.7556L9.80772 10.3138L13.8476 1.28861H19.1399V19.5723ZM22.9341 19.5723V1.28861H35.2992V4.77589H27.502V7.98075H34.6853V11.468H27.502V16.085H35.2992V19.5723H22.9341ZM130.45 19.9529C127.995 19.9529 126.104 19.3594 124.777 18.1724C123.459 16.9855 122.8 15.25 122.8 12.9661V1.28861H127.393V12.6959C127.393 13.9648 127.63 14.9103 128.105 15.5324C128.588 16.1546 129.37 16.4656 130.45 16.4656C131.506 16.4656 132.28 16.1668 132.771 15.5693C133.27 14.9717 133.52 14.0139 133.52 12.6959V1.28861H138.113V12.9538C138.113 15.205 137.466 16.9363 136.172 18.1479C134.887 19.3512 132.98 19.9529 130.45 19.9529ZM141.649 19.5723V1.28861H154.014V4.77589H146.217V7.98075H153.4V11.468H146.217V16.085H154.014V19.5723H141.649Z" fill="#DFE8E9"/>
<path d="M54.7371 10.4489C54.7371 12.1516 54.3647 13.6783 53.6197 15.029C52.8748 16.3715 51.9334 17.4029 50.7955 18.1233C49.8459 18.7373 48.8104 19.1343 47.6889 19.3144C46.5756 19.4863 45.3886 19.5723 44.1279 19.5723H38.4059V1.28861H44.0788C45.364 1.28861 46.5674 1.37047 47.6889 1.5342C48.8104 1.69792 49.8623 2.09494 50.8446 2.72527C52.048 3.49477 52.9976 4.5344 53.6934 5.84418C54.3892 7.14577 54.7371 8.68066 54.7371 10.4489ZM50.0219 10.412C50.0219 9.20866 49.8132 8.18131 49.3957 7.32995C48.9864 6.47041 48.352 5.79915 47.4924 5.31617C46.8703 4.97236 46.2154 4.78408 45.5278 4.75133C44.8483 4.71859 44.0338 4.70222 43.0842 4.70222H42.9983V16.1464H43.0842C44.1157 16.1464 44.9834 16.13 45.6874 16.0973C46.3996 16.0563 47.0749 15.8353 47.7134 15.4342C48.4666 14.9594 49.0396 14.3045 49.4325 13.4695C49.8255 12.6345 50.0219 11.6154 50.0219 10.412ZM66.5742 19.5723H56.7263V16.3797H59.3541V4.48119H56.7263V1.28861H66.5742V4.48119H63.9465V16.3797H66.5742V19.5723Z" fill="#2F8DAD"/>
<path d="M96.388 19.9529C93.9322 19.9529 92.0412 19.3594 90.715 18.1724C89.3971 16.9855 88.7381 15.25 88.7381 12.9661V1.28861H93.3305V12.6959C93.3305 13.9648 93.5679 14.9103 94.0427 15.5324C94.5257 16.1546 95.3074 16.4656 96.388 16.4656C97.444 16.4656 98.2176 16.1668 98.7088 15.5693C99.2081 14.9717 99.4578 14.0139 99.4578 12.6959V1.28861H104.05V12.9538C104.05 15.205 103.403 16.9363 102.11 18.1479C100.825 19.3512 98.9175 19.9529 96.388 19.9529ZM107.587 19.5723V1.28861H119.952V4.77589H112.154V7.98075H119.338V11.468H112.154V16.085H119.952V19.5723H107.587Z" fill="#E99006"/>
</svg>
